<svg width="78" height="46" viewBox="0 0 78 46" fill="none" xmlns="http://www.w3.org/2000/svg">
<path d="M62.034 9.87609C59.2385 8.05693 56.6232 6.5402 54.3976 5.28218C49.9313 2.76022 47.0515 1.24799 47.2777 0.62081C47.5039 -0.0063656 50.8276 0.498534 55.7874 2.3363C58.7246 3.42778 61.5733 4.74385 64.3095 6.27328C65.8622 7.14473 67.4517 8.10192 69.0597 9.19151C69.8697 9.72077 70.6464 10.2907 71.4688 10.8784C72.4589 11.5841 73.3452 12.4278 74.1022 13.3854C74.5944 14.0292 74.9438 14.7745 75.1267 15.5711C75.2412 16.1226 75.2572 16.6919 75.1741 17.252C75.2636 17.4496 75.2772 17.6748 75.212 17.8841C75.1469 18.0934 75.0077 18.2717 74.8216 18.3843C74.2985 19.4479 73.5417 20.3775 72.6105 21.1004C71.0789 22.293 69.7777 23.2533 68.4219 24.2638C65.7708 26.2191 63.3349 27.9363 61.2081 29.3087C57.0305 32.0831 54.22 33.5474 53.7809 33.055C53.3418 32.5626 55.338 30.1741 58.9454 26.7491C60.749 25.0366 62.9502 23.0674 65.4365 20.9051C65.5555 20.8205 65.6681 20.7267 65.7731 20.6247C63.3669 21.0484 60.3773 21.5314 56.6616 22.1256C51.4025 22.996 44.9254 24.1619 38.3284 25.9068C31.7953 27.5704 25.4329 29.889 19.3354 32.8282C14.4615 35.1665 9.83444 38.0119 5.52945 41.3181C2.27212 43.8423 0.368209 45.5873 0.051329 45.3212C-0.265551 45.055 1.02294 42.8206 3.89547 39.6642C7.7709 35.5653 12.2083 32.0558 17.0668 29.2473C23.202 25.6818 29.7193 22.856 36.484 20.8283C42.6727 18.9493 48.9726 17.4913 55.3414 16.4642C61.7975 15.3974 66.0851 14.954 68.9844 14.7934C68.1923 14.1281 67.1598 13.4051 66.2734 12.7568C64.8083 11.7049 63.3708 10.7173 61.9548 9.80957" fill="white"/>
</svg>
