<svg width="213" height="213" viewBox="0 0 213 213" fill="none" xmlns="http://www.w3.org/2000/svg">
<path d="M205.5 106.5C205.5 161.176 161.176 205.5 106.5 205.5C51.8238 205.5 7.5 161.176 7.5 106.5C7.5 51.8238 51.8238 7.5 106.5 7.5C161.176 7.5 205.5 51.8238 205.5 106.5Z" fill="white" stroke="#7664E9" stroke-width="15"/>
<path d="M59.2983 55.0827C59.6415 54.4177 60.3272 54 61.0756 54H164.288C165.786 54 166.753 55.5861 166.066 56.9173L153.273 81.703C152.93 82.368 152.244 82.7857 151.496 82.7857H48.2829C46.7849 82.7857 45.8187 81.1996 46.5057 79.8684L59.2983 55.0827Z" fill="#7664E9"/>
<path d="M59.2983 130.297C59.6415 129.632 60.3272 129.214 61.0756 129.214H164.288C165.786 129.214 166.753 130.8 166.066 132.132L153.273 156.917C152.93 157.582 152.244 158 151.496 158H48.2829C46.7849 158 45.8187 156.414 46.5057 155.083L59.2983 130.297Z" fill="#7664E9"/>
<path d="M153.273 92.2256C152.93 91.5606 152.244 91.1429 151.496 91.1429H48.2829C46.7849 91.1429 45.8187 92.729 46.5057 94.0601L59.2983 118.846C59.6415 119.511 60.3272 119.929 61.0756 119.929H164.288C165.786 119.929 166.753 118.342 166.066 117.011L153.273 92.2256Z" fill="#7664E9"/>
</svg>
